<?xml version="1.0" encoding="UTF-8"?>
<svg width="813px" height="955px" viewBox="0 0 813 955" version="1.1" xmlns="http://www.w3.org/2000/svg" xmlns:xlink="http://www.w3.org/1999/xlink">
    <title>cassem-architeture</title>
    <g id="页面-1" stroke="none" stroke-width="1" fill="none" fill-rule="evenodd">
        <g id="CLIENT" transform="translate(0.000000, 320.000000)">
            <rect id="矩形" stroke="#979797" fill="#70DAE6" x="0.5" y="0.5" width="64" height="152"></rect>
            <text transform="translate(32.500000, 82.000000) rotate(-90.000000) translate(-32.500000, -82.000000) " font-family="PingFangSC-Regular, PingFang SC" font-size="20" font-weight="normal" fill="#FFFFFF">
                <tspan x="-3" y="89">CLIENT</tspan>
            </text>
        </g>
        <g id="CORE" transform="translate(0.000000, 670.000000)">
            <rect id="矩形" stroke="#979797" fill="#A53D3D" x="0.5" y="0.5" width="64" height="283"></rect>
            <text transform="translate(32.500000, 131.500000) rotate(-90.000000) translate(-32.500000, -131.500000) " font-family="Monaco" font-size="20" font-weight="normal" fill="#F8F8F8">
                <tspan x="3" y="139">CORE</tspan>
            </text>
        </g>
        <g id="API" transform="translate(0.000000, 495.000000)">
            <rect id="矩形" stroke="#979797" fill="#98C794" x="0.5" y="0.5" width="64" height="152"></rect>
            <text transform="translate(32.500000, 77.000000) rotate(-90.000000) translate(-32.500000, -77.000000) " font-family="PingFangSC-Regular, PingFang SC" font-size="20" font-weight="normal" fill="#FDFDFD">
                <tspan x="15" y="84">API</tspan>
            </text>
        </g>
        <g id="title" transform="translate(0.000000, 247.000000)">
            <rect stroke="#979797" fill="#D8D8D8" x="0.5" y="0.5" width="812" height="50"></rect>
            <text id="Architeture-of-CASSE" font-family="JetBrainsMono-Regular, JetBrains Mono" font-size="20" font-weight="normal" fill="#000000">
                <tspan x="281" y="33">Architeture of CASSEM</tspan>
            </text>
        </g>
        <rect id="split-1" fill="#E9E5E5" x="0" y="297" width="813" height="24"></rect>
        <rect id="split-2" fill="#E9E5E5" x="0" y="473" width="813" height="24"></rect>
        <rect id="split-3" fill="#E9E5E5" x="0" y="648" width="813" height="24"></rect>
        <g id="cassemctl" transform="translate(65.000000, 321.000000)">
            <rect id="矩形" fill="#B4DCE0" x="0" y="0" width="270" height="152"></rect>
            <text font-family="JetBrainsMono-Regular, JetBrains Mono" font-size="20" font-weight="normal" fill="#000000">
                <tspan x="78" y="83">cassemctl</tspan>
            </text>
        </g>
        <g id="webui" transform="translate(335.000000, 321.000000)">
            <rect id="矩形" stroke="#979797" fill="#B4DCE0" x="0.5" y="0.5" width="251" height="151"></rect>
            <text id="WEB-UI" font-family="JetBrainsMono-Regular, JetBrains Mono" font-size="20" font-weight="normal" fill="#000000">
                <tspan x="87" y="83">WEB UI</tspan>
            </text>
        </g>
        <g id="clientsdk" transform="translate(587.000000, 321.000000)">
            <rect id="矩形" fill="#B4DCE0" x="0" y="0" width="226" height="152"></rect>
            <text id="CLIENT-SDK" font-family="JetBrainsMono-Regular, JetBrains Mono" font-size="20" font-weight="normal" fill="#000000">
                <tspan x="53" y="83">CLIENT SDK</tspan>
            </text>
        </g>
        <g id="httpapi" transform="translate(64.000000, 497.000000)">
            <polygon id="矩形" fill="#BFD8B6" points="0 0 636 0 636 151 625.539191 151 0 151"></polygon>
            <text id="RESTful-HTTP-API" font-family="JetBrainsMono-Regular, JetBrains Mono" font-size="20" font-weight="normal" fill="#000000">
                <tspan x="220" y="83">RESTful HTTP API</tspan>
            </text>
        </g>
        <g id="changes-notifier" transform="translate(699.000000, 497.000000)">
            <path d="M113.5,0.5 L113.5,150.5 L0.5,150.5 L0.5,0.5 L113.5,0.5 Z" id="矩形" stroke="#979797" fill="#BFD8B6"></path>
            <text id="Changes-Notifier" font-family="JetBrainsMono-Regular, JetBrains Mono" font-size="20" font-weight="normal" fill="#000000">
                <tspan x="9" y="71">Changes</tspan>
                <tspan x="9" y="95">Notifier </tspan>
            </text>
        </g>
        <g id="raft-and-cache" transform="translate(64.000000, 776.000000)">
            <g id="raft-comp">
                <rect id="矩形" stroke="#979797" fill="#D8CE93" x="0.5" y="0.5" width="223" height="123"></rect>
                <text id="RAFT" font-family="JetBrainsMono-Regular, JetBrains Mono" font-size="20" font-weight="normal" fill="#FFFFFF">
                    <tspan x="85" y="69">RAFT</tspan>
                </text>
            </g>
            <g id="raft-comp备份-3" transform="translate(125.000000, 88.000000)">
                <rect id="矩形" stroke="#979797" fill="#948E6E" x="0.5" y="0.5" width="131" height="72"></rect>
                <text id="FSM" font-family="JetBrainsMono-Regular, JetBrains Mono" font-size="20" font-weight="normal" fill="#FFFFFF">
                    <tspan x="50" y="44">FSM</tspan>
                </text>
            </g>
            <g id="raft-comp备份-4" transform="translate(270.000000, 0.000000)">
                <rect id="矩形" stroke="#979797" fill="#9E7F7F" x="0.5" y="0.5" width="251" height="124"></rect>
                <text id="DISTRIBUTED-CACHE" font-family="JetBrainsMono-Regular, JetBrains Mono" font-size="20" font-weight="normal" fill="#FFFFFF">
                    <tspan x="58" y="58">DISTRIBUTED </tspan>
                    <tspan x="58" y="82">CACHE</tspan>
                </text>
            </g>
            <path id="路径" d="M395.685555,124.419759 L397.314445,125.580241 C376.870416,154.27613 350.157819,171.325094 317.223483,176.686755 C289.035347,181.275742 262.05116,178.303641 236.291647,167.770947 L233.739263,173.253439 L224,161 L239.646309,160.560653 L237.135593,165.955265 C262.525442,176.318687 289.107399,179.237682 316.902117,174.712743 C349.301114,169.438234 375.546651,152.687365 395.685555,124.419759 Z" fill="#000000" fill-rule="nonzero"></path>
            <text id="based" font-family="PingFangSC-Regular, PingFang SC" font-size="20" font-weight="normal" fill="#000000">
                <tspan x="270" y="161">based</tspan>
            </text>
        </g>
        <g id="persistence" transform="translate(599.000000, 844.000000)">
            <rect id="矩形" stroke="#979797" fill="#93A4D8" x="0.5" y="0.5" width="212" height="55"></rect>
            <text id="PERSISTENCE" font-family="JetBrainsMono-Regular, JetBrains Mono" font-size="20" font-weight="normal" fill="#FFFFFF">
                <tspan x="41" y="35">PERSISTENCE</tspan>
            </text>
        </g>
        <g id="watcher" transform="translate(599.000000, 776.000000)">
            <rect id="矩形" stroke="#979797" fill="#498F8B" x="0.5" y="0.5" width="212" height="53"></rect>
            <text id="WATCHER" font-family="JetBrainsMono-Regular, JetBrains Mono" font-size="20" font-weight="normal" fill="#FFFFFF">
                <tspan x="62" y="34">WATCHER</tspan>
            </text>
        </g>
        <g id="coordinator" transform="translate(64.000000, 672.000000)">
            <rect id="矩形" stroke="#979797" fill="#D89393" x="0.5" y="0.5" width="748" height="38"></rect>
            <text id="COORDINATOR" font-family="JetBrainsMono-Regular, JetBrains Mono" font-size="20" font-weight="normal" fill="#FFFFFF">
                <tspan x="305" y="27">COORDINATOR</tspan>
            </text>
        </g>
        <g id="permission-controler" transform="translate(64.000000, 724.000000)">
            <rect id="矩形" stroke="#979797" fill="#959191" x="0.5" y="0.5" width="748" height="38"></rect>
            <text id="PERMISSION-CONTROLER" font-family="JetBrainsMono-Regular, JetBrains Mono" font-size="20" font-weight="normal" fill="#FFFFFF">
                <tspan x="251" y="27">PERMISSION CONTROLER</tspan>
            </text>
        </g>
        <text id="description" font-family="JetBrainsMono-Regular, JetBrains Mono" font-size="20" font-weight="normal" fill="#000000">
            <tspan x="0" y="19">CASSEM‘s features:</tspan>
            <tspan x="0" y="43"></tspan>
            <tspan x="0" y="67">1. Basic assembled container and field with RESTFul API.</tspan>
            <tspan x="0" y="91">2. Multiple file format supportted (JSON / TOML).</tspan>
            <tspan x="0" y="115">3. Distributed server architecture support horizontal scaling.</tspan>
            <tspan x="0" y="139">4. Reading and writing separation.</tspan>
            <tspan x="0" y="163">5. Distributed Cache based RAFT FSM.</tspan>
            <tspan x="0" y="187">6. Authorization middleware to make sure that safety.</tspan>
        </text>
        <text id="@yeqown" transform="translate(640.000000, 273.000000) rotate(-27.000000) translate(-640.000000, -273.000000) " font-family="JetBrainsMono-Regular, JetBrains Mono" font-size="48" font-weight="normal" fill="#CCC1C1">
            <tspan x="539" y="290">@yeqown</tspan>
        </text>
    </g>
</svg>